<mxfile host="app.diagrams.net" agent="Mozilla/5.0 (Windows NT 10.0; Win64; x64) AppleWebKit/537.36 (KHTML, like Gecko) Chrome/134.0.0.0 Safari/537.36" version="26.1.0">
  <diagram name="Page-1" id="-5lCojONUrvcv5ciivN9">
    <mxGraphModel dx="1434" dy="738" grid="1" gridSize="10" guides="1" tooltips="1" connect="1" arrows="1" fold="1" page="1" pageScale="1" pageWidth="827" pageHeight="1169" math="0" shadow="0">
      <root>
        <mxCell id="0" />
        <mxCell id="1" parent="0" />
        <mxCell id="2" value="User" style="shape=ellipse;fillColor=#D5E8D4" vertex="1" parent="1">
          <mxGeometry x="100" y="100" width="120" height="60" as="geometry" />
        </mxCell>
        <mxCell id="3" value="Admin" style="shape=ellipse;fillColor=#F8CECC" vertex="1" parent="1">
          <mxGeometry x="500" y="100" width="120" height="60" as="geometry" />
        </mxCell>
        <mxCell id="4" value="UserID (PK)" style="shape=rectangle;fillColor=#FFF2CC" vertex="1" parent="1">
          <mxGeometry x="40" y="200" width="100" height="40" as="geometry" />
        </mxCell>
        <mxCell id="5" value="Username" style="shape=rectangle;fillColor=#FFF2CC" vertex="1" parent="1">
          <mxGeometry x="40" y="250" width="100" height="40" as="geometry" />
        </mxCell>
        <mxCell id="6" value="Email" style="shape=rectangle;fillColor=#FFF2CC" vertex="1" parent="1">
          <mxGeometry x="40" y="300" width="100" height="40" as="geometry" />
        </mxCell>
        <mxCell id="7" value="AdminID (PK)" style="shape=rectangle;fillColor=#FFF2CC" vertex="1" parent="1">
          <mxGeometry x="500" y="200" width="100" height="40" as="geometry" />
        </mxCell>
        <mxCell id="8" value="AdminName" style="shape=rectangle;fillColor=#FFF2CC" vertex="1" parent="1">
          <mxGeometry x="500" y="250" width="100" height="40" as="geometry" />
        </mxCell>
        <mxCell id="9" value="Email" style="shape=rectangle;fillColor=#FFF2CC" vertex="1" parent="1">
          <mxGeometry x="500" y="300" width="100" height="40" as="geometry" />
        </mxCell>
        <mxCell id="10" value="Manages" style="edgeStyle=elbowEdgeStyle;" edge="1" parent="1" source="3" target="2">
          <mxGeometry relative="1" as="geometry" />
        </mxCell>
        <mxCell id="11" value="Books Vehicle" style="edgeStyle=elbowEdgeStyle;" edge="1" parent="1" source="2" target="12">
          <mxGeometry relative="1" as="geometry" />
        </mxCell>
        <mxCell id="12" value="Vehicle" style="shape=ellipse;fillColor=#DAE8FC" vertex="1" parent="1">
          <mxGeometry x="300" y="300" width="120" height="60" as="geometry" />
        </mxCell>
        <mxCell id="13" value="VehicleID (PK)" style="shape=rectangle;fillColor=#FFF2CC" vertex="1" parent="1">
          <mxGeometry x="260" y="400" width="100" height="40" as="geometry" />
        </mxCell>
        <mxCell id="14" value="Brand" style="shape=rectangle;fillColor=#FFF2CC" vertex="1" parent="1">
          <mxGeometry x="260" y="450" width="100" height="40" as="geometry" />
        </mxCell>
        <mxCell id="15" value="Model" style="shape=rectangle;fillColor=#FFF2CC" vertex="1" parent="1">
          <mxGeometry x="260" y="500" width="100" height="40" as="geometry" />
        </mxCell>
        <mxCell id="16" value="Price" style="shape=rectangle;fillColor=#FFF2CC" vertex="1" parent="1">
          <mxGeometry x="260" y="550" width="100" height="40" as="geometry" />
        </mxCell>
        <mxCell id="17" value="Manages" style="edgeStyle=elbowEdgeStyle;" edge="1" parent="1" source="3" target="12">
          <mxGeometry relative="1" as="geometry" />
        </mxCell>
      </root>
    </mxGraphModel>
  </diagram>
</mxfile>
